# xmcd
#
# Track frame offsets:
#       150
#       12180
#       25440
#       42394
#       55003
#       66043
#       79206
#       91374
#       104657
#       117216
#       127256
#       139482
#
# Disc length: 2061 seconds
#
# Revision: 0
# Processed by: cddbd v1.5.2PL0 Copyright (c) Steve Scherf et al.
# Submitted via: WaveLab 4.01
#
DISCID=ac080b0c
DTITLE=Jaisson e Juliano - Jogo Duro
DYEAR=1900
DGENRE=
TTITLE0=Bandida
TTITLE1=Nosso amor
TTITLE2=Tao perto e tao distante
TTITLE3=Jogo duro
TTITLE4=Troca tapa
TTITLE5=Cai na real
TTITLE6=Sinto falta de voce
TTITLE7=Perfeita pra mim
TTITLE8=Pingaiada
TTITLE9=Sei la
TTITLE10=Frio e temporal
TTITLE11=Me leva embora
EXTD=
EXTT0=
EXTT1=
EXTT2=
EXTT3=
EXTT4=
EXTT5=
EXTT6=
EXTT7=
EXTT8=
EXTT9=
EXTT10=
EXTT11=
PLAYORDER=
